{
  "accessors": [
    {
      "bufferView": 2,
      "componentType": 5126,
      "count": 576,
      "max": [
        13.22130012512207,
        13.965700149536133,
        28.65489959716797
      ],
      "min": [
        -12.503600120544434,
        -15.421299934387207,
        7.690370082855225
      ],
      "type": "VEC3"
    },
    {
      "bufferView": 2,
      "byteOffset": 6912,
      "componentType": 5126,
      "count": 576,
      "max": [
        0.9612215161323547,
        0.9662861227989197,
        0.9976447820663452
      ],
      "min": [
        -0.954850971698761,
        -0.9869653582572937,
        -0.048964276909828186
      ],
      "type": "VEC3"
    },
    {
      "bufferView": 1,
      "componentType": 5126,
      "count": 576,
      "max": [
        1.0,
        1.0
      ],
      "min": [
        0.0,
        0.0
      ],
      "type": "VEC2"
    },
    {
      "bufferView": 0,
      "componentType": 5125,
      "count": 864,
      "type": "SCALAR"
    },
    {
      "bufferView": 2,
      "byteOffset": 13824,
      "componentType": 5126,
      "count": 28,
      "max": [
        3.087860107421875,
        2.8141400814056396,
        21.504499435424805
      ],
      "min": [
        -3.813930034637451,
        -1.8005599975585938,
        1.9108200073242188
      ],
      "type": "VEC3"
    },
    {
      "bufferView": 2,
      "byteOffset": 14160,
      "componentType": 5126,
      "count": 28,
      "max": [
        -0.004634982440620661,
        0.9656017422676086,
        0.32885491847991943
      ],
      "min": [
        -0.9347668886184692,
        -0.9987944960594177,
        -0.019254593178629875
      ],
      "type": "VEC3"
    },
    {
      "bufferView": 1,
      "byteOffset": 4608,
      "componentType": 5126,
      "count": 28,
      "max": [
        1.0,
        1.0
      ],
      "min": [
        0.0,
        0.0
      ],
      "type": "VEC2"
    },
    {
      "bufferView": 0,
      "byteOffset": 3456,
      "componentType": 5125,
      "count": 42,
      "type": "SCALAR"
    },
    {
      "bufferView": 2,
      "byteOffset": 14496,
      "componentType": 5126,
      "count": 31143,
      "max": [
        10.646699905395508,
        10.039600372314453,
        23.910200119018555
      ],
      "min": [
        -11.034500122070313,
        -9.896650314331055,
        -2.5746700763702393
      ],
      "type": "VEC3"
    },
    {
      "bufferView": 2,
      "byteOffset": 388212,
      "componentType": 5126,
      "count": 31143,
      "max": [
        0.9999964833259583,
        0.9999665021896362,
        0.999996542930603
      ],
      "min": [
        -0.9999749064445496,
        -0.9999788999557495,
        -0.9999616146087646
      ],
      "type": "VEC3"
    },
    {
      "bufferView": 1,
      "byteOffset": 4832,
      "componentType": 5126,
      "count": 31143,
      "max": [
        2.8455100059509277,
        117.5780029296875
      ],
      "min": [
        -0.9085429906845093,
        -3.486799955368042
      ],
      "type": "VEC2"
    },
    {
      "bufferView": 0,
      "byteOffset": 3624,
      "componentType": 5125,
      "count": 158673,
      "type": "SCALAR"
    }
  ],
  "asset": {
    "extras": {
      "author": "loganghost115 (https://sketchfab.com/juancarlos474)",
      "license": "CC-BY-4.0 (http://creativecommons.org/licenses/by/4.0/)",
      "source": "https://sketchfab.com/3d-models/jungle-tree-14b750f592a7405ea17373c7dfcdbaf7",
      "title": "jungle tree"
    },
    "generator": "Sketchfab-15.30.0",
    "version": "2.0"
  },
  "bufferViews": [
    {
      "buffer": 0,
      "byteLength": 638316,
      "name": "floatBufferViews",
      "target": 34963
    },
    {
      "buffer": 0,
      "byteLength": 253976,
      "byteOffset": 638316,
      "byteStride": 8,
      "name": "floatBufferViews",
      "target": 34962
    },
    {
      "buffer": 0,
      "byteLength": 761928,
      "byteOffset": 892292,
      "byteStride": 12,
      "name": "floatBufferViews",
      "target": 34962
    }
  ],
  "buffers": [
    {
      "byteLength": 1654220,
      "uri": "scene.bin"
    }
  ],
  "extensionsUsed": [
    "KHR_materials_specular"
  ],
  "images": [
    {
      "uri": "textures/pkcxM_2K_Albedo_2_Mat_baseColor.png"
    },
    {
      "uri": "textures/pkcxM_2K_Albedo_Mat_baseColor.png"
    },
    {
      "uri": "textures/vmhkaj2g_2K_Albedo_Mat_baseColor.png"
    },
    {
      "uri": "textures/vmhkaj2g_2K_Albedo_Mat_metallicRoughness.png"
    }
  ],
  "materials": [
    {
      "alphaCutoff": 0.010647165116236623,
      "alphaMode": "MASK",
      "doubleSided": true,
      "extensions": {
        "KHR_materials_specular": {
          "specularColorFactor": [
            1.0,
            1.0,
            1.0
          ],
          "specularFactor": 0.4182814867092959
        }
      },
      "name": "pkcxM_2K_Albedo_2_Mat",
      "pbrMetallicRoughness": {
        "baseColorTexture": {
          "index": 0
        },
        "metallicFactor": 0.6677293551468396,
        "roughnessFactor": 0.4
      }
    },
    {
      "alphaCutoff": 0.022815353820507048,
      "alphaMode": "MASK",
      "doubleSided": true,
      "name": "pkcxM_2K_Albedo_Mat",
      "pbrMetallicRoughness": {
        "baseColorTexture": {
          "index": 1
        },
        "metallicFactor": 0.0,
        "roughnessFactor": 0.6
      }
    },
    {
      "doubleSided": true,
      "name": "vmhkaj2g_2K_Albedo_Mat",
      "pbrMetallicRoughness": {
        "baseColorTexture": {
          "index": 2
        },
        "metallicFactor": 0.0,
        "metallicRoughnessTexture": {
          "index": 3
        }
      }
    }
  ],
  "meshes": [
    {
      "name": "Object_0",
      "primitives": [
        {
          "attributes": {
            "NORMAL": 1,
            "POSITION": 0,
            "TEXCOORD_0": 2
          },
          "indices": 3,
          "material": 0,
          "mode": 4
        }
      ]
    },
    {
      "name": "Object_1",
      "primitives": [
        {
          "attributes": {
            "NORMAL": 5,
            "POSITION": 4,
            "TEXCOORD_0": 6
          },
          "indices": 7,
          "material": 1,
          "mode": 4
        }
      ]
    },
    {
      "name": "Object_2",
      "primitives": [
        {
          "attributes": {
            "NORMAL": 9,
            "POSITION": 8,
            "TEXCOORD_0": 10
          },
          "indices": 11,
          "material": 2,
          "mode": 4
        }
      ]
    }
  ],
  "nodes": [
    {
      "children": [
        1
      ],
      "matrix": [
        1.0,
        0.0,
        0.0,
        0.0,
        0.0,
        2.220446049250313e-16,
        -1.0,
        0.0,
        0.0,
        1.0,
        2.220446049250313e-16,
        0.0,
        0.0,
        0.0,
        0.0,
        1.0
      ],
      "name": "Sketchfab_model"
    },
    {
      "children": [
        2,
        3,
        4
      ],
      "name": "treejungle.obj.cleaner.materialmerger.gles"
    },
    {
      "mesh": 0,
      "name": "Object_2"
    },
    {
      "mesh": 1,
      "name": "Object_3"
    },
    {
      "mesh": 2,
      "name": "Object_4"
    }
  ],
  "samplers": [
    {
      "magFilter": 9729,
      "minFilter": 9987,
      "wrapS": 10497,
      "wrapT": 10497
    }
  ],
  "scene": 0,
  "scenes": [
    {
      "name": "Sketchfab_Scene",
      "nodes": [
        0
      ]
    }
  ],
  "textures": [
    {
      "sampler": 0,
      "source": 0
    },
    {
      "sampler": 0,
      "source": 1
    },
    {
      "sampler": 0,
      "source": 2
    },
    {
      "sampler": 0,
      "source": 3
    }
  ]
}
